<?xml version="1.0" encoding="UTF-8"?> <!-- Generator: Adobe Illustrator 25.2.3, SVG Export Plug-In . SVG Version: 6.00 Build 0) --> <svg xmlns="http://www.w3.org/2000/svg" xmlns:xlink="http://www.w3.org/1999/xlink" version="1.1" id="Capa_1" x="0px" y="0px" viewBox="0 0 512 512" style="enable-background:new 0 0 512 512;" xml:space="preserve"> <style type="text/css"> .st0{fill:#FE9003;} </style> <g> <path class="st0" d="M371.2,468.1L351,449.8l-14.7-113.9c-1.3-9.7-6.1-18.8-13.3-25.4c1.4-3.5,1.7-7.3,1-11 c-1.3-6.3-5.5-11.6-11.5-14.2l-53.6-23.1c0,0,0,0,0,0l-0.1,0c0,0-0.1,0-0.1,0l-73.2-30.7l22.5-58.5l26.1-1c4.1-0.2,7.3-3.6,7.1-7.7 c-0.2-4.1-3.6-7.3-7.7-7.1l-34.9,1.3l0-23.9l43.6-2.3c4.1-0.2,7.2-3.7,7-7.8c-0.2-4.1-3.7-7.3-7.8-7l-9.7,0.5c1-1.3,1.9-2.5,3-3.7 c4.9-5.6,11.7-9.1,19.1-9.7c9.8,12.7,27.9,19.9,44.1,16.9c5.3,4.2,7.3,11.4,4.6,17.8l-43,101.9c-1.6,3.8,0.2,8.1,4,9.7 c3.7,1.6,8.1-0.1,9.7-4l23.8-56.3l19.8,13.1c4.5,3,9.7,4.5,15.1,4.5c0.9,0,68.8-2.5,69.8-2.6c7.2-0.3,13.9-3.5,18.6-9 c4.7-5.4,6.9-12.7,6-19.8c-1.5-13-12.5-22.8-25.6-22.8h-64.5l-18.8-12.7c2.5-8.8,0.8-18.1-4.3-25.4c0.5-0.3,1-0.5,1.5-0.8 c10.8-6.5,18.3-16.8,21.4-28.9l6.4-25.6c6.3-25.2-9.1-50.7-34.3-57c-12.2-3-24.8-1.1-35.6,5.4c-10.8,6.5-18.3,16.8-21.4,28.9 l-6.4,25.6c-2.3,9.3-1.7,18.6,1.3,27.1c-14.7,3.2-25.7,15.2-32.6,28.2l-48.8,2.6c-9.1,0.5-17.6,4.2-24.2,10.5l-43.2,41.4 c-5.4,5.2-8.5,12.2-8.5,19.7c-0.1,7.5,2.8,14.6,8.1,19.9c5.4,5.4,12.5,8.1,19.6,8.1c7,0,14.1-2.7,19.4-8l39.2-38.8l16.6-0.6 l-22.8,59.1c0,0,0,0,0,0l-32.6,79.9c-3,7.3-1.3,15.6,4.2,21.2l30,30.2L63.6,406.6v-27.4l63.2-26.3c3.8-1.6,5.6-5.9,4-9.7 c-1.6-3.8-5.9-5.6-9.7-4l-66.5,27.6H21.1C9.5,366.8,0,376.3,0,387.9v40.7c0,13.1,10.7,23.8,23.8,23.8c6.7,0,13.1-2.8,17.6-7.8 l19-20.9L183.5,375c3.2,1.4,6.8,1.9,10.3,1.5c6.1-0.8,11.4-4.3,14.5-9.7l15.4-26.8l29.8,20.8c3.4,2.4,7.4,3.6,11.3,3.6 c3.6,0,7.2-1,10.3-3l18.2,92.8v28.6c0,14.8,12.1,26.9,26.9,26.9h34.9c13.1,0,23.8-10.7,23.8-23.8 C379,479.1,376.1,472.6,371.2,468.1L371.2,468.1z M340.2,169.1h60.7c5.5,0,10.2,4.1,10.8,9.6c0.4,3.1-0.5,6-2.6,8.4 c-2,2.3-4.8,3.7-7.9,3.8l-65.8,2.4L340.2,169.1z M325.8,165l-4.7,23.7l-18.2-12.1l8.9-21.1L325.8,165z M265.7,41.7 c2.1-8.3,7.3-15.4,14.6-19.8c7.4-4.4,16-5.7,24.3-3.7c17.9,4.5,29,24.2,22.7,42l-23.5-14.2c-7.2-4.3-16.5-2.9-22.1,3.3l-5.1,5.7 c-0.9,1-2.4,1.2-3.5,0.4l-9.3-6.2L265.7,41.7z M259.3,67.3l0.6-2.6l4.9,3.2c7.2,4.8,17,3.5,22.8-2.9l5.1-5.7c0.9-1,2.3-1.2,3.4-0.5 l27.5,16.5l-1.9,7.5c-4.1,16.9-22,27.7-38.9,23.5C265.6,102,255.1,84.5,259.3,67.3z M183.9,159.1l-12,0.5c-1.9,0.1-3.6,0.8-4.9,2.1 l-41.3,40.8c-5,4.9-13.1,4.9-18.1-0.1c-2.5-2.5-3.8-5.7-3.8-9.2s1.4-6.7,4-9.1l43.2-41.4c4-3.8,9.2-6.1,14.7-6.4l18.2-1 L183.9,159.1z M48.7,414.7l-18.3,20c-1.7,1.9-4.1,2.9-6.6,2.9c-4.9,0-9-4-9-9v-40.7c0-3.4,2.8-6.2,6.2-6.2h27.6V414.7z M195.5,359.4c-1,1.8-2.6,2.2-3.5,2.3c-0.9,0.1-2.5,0.1-4-1.4l-36.7-37c-1.3-1.3-1.7-3.4-1-5.1l29.8-73l65.2,27.4L195.5,359.4z M274.5,341.4C274.5,341.4,274.5,341.5,274.5,341.4l-6.4,6.6c-1.6,1.7-4.2,1.9-6.1,0.6L231.2,327l27.8-48.5l47.6,20.5 c2.1,0.9,2.6,2.7,2.8,3.4c0.1,0.7,0.3,2.6-1.2,4.2l-0.3,0.3c0,0-0.1,0.1-0.1,0.1L274.5,341.4z M287.8,349.1l25.9-26.8 c4.2,4.1,7,9.6,7.8,15.6l14,108.2h-28.7L287.8,349.1z M355.1,494.7h-34.9c-6.6,0-12-5.4-12-12v-21.9h32.9l20,18.3 c1.9,1.7,2.9,4.1,2.9,6.6C364.1,490.7,360.1,494.7,355.1,494.7L355.1,494.7z M446.8,379.1c-36,0-65.2,29.3-65.2,65.2 c0,36,29.3,65.2,65.2,65.2c36,0,65.2-29.3,65.2-65.2C512,408.4,482.7,379.1,446.8,379.1L446.8,379.1z M446.8,494.7 c-27.8,0-50.4-22.6-50.4-50.4c0-27.8,22.6-50.4,50.4-50.4c27.8,0,50.4,22.6,50.4,50.4C497.1,472.1,474.5,494.7,446.8,494.7z"></path> </g> </svg> 