<?xml version="1.0" encoding="UTF-8"?> <!-- Generator: Adobe Illustrator 25.2.3, SVG Export Plug-In . SVG Version: 6.00 Build 0) --> <svg xmlns="http://www.w3.org/2000/svg" xmlns:xlink="http://www.w3.org/1999/xlink" version="1.1" id="Capa_1" x="0px" y="0px" viewBox="0 0 512 512" style="enable-background:new 0 0 512 512;" xml:space="preserve"> <style type="text/css"> .st0{fill:#FE9003;} </style> <g> <path class="st0" d="M496,208h-24V104c0-4.4-3.6-8-8-8h-96c-4.4,0-8,3.6-8,8v104H214.2l-4-16H268c15.5,0,28-12.5,28-28V60 c0-15.5-12.5-28-28-28H68c-15.5,0-28,12.5-28,28v104c0,15.5,12.5,28,28,28h57.8l-4,16H16c-4.4,0-8,3.6-8,8v256c0,4.4,3.6,8,8,8h24 c4.4,0,8-3.6,8-8V320h248v152c0,4.4,3.6,8,8,8h24c4.4,0,8-3.6,8-8v-24h128v24c0,4.4,3.6,8,8,8h24c4.4,0,8-3.6,8-8V216 C504,211.6,500.4,208,496,208z M424,112h32v96h-32V112z M376,112h32v96h-32V112z M56,60c0-6.6,5.4-12,12-12h200c6.6,0,12,5.4,12,12 v92H56V60z M68,176c-5.1,0-9.6-3.2-11.3-8h222.6c-1.7,4.8-6.2,8-11.3,8H68z M197.8,208h-59.5l4-16h51.5L197.8,208z M32,464h-8V256 h8V464z M296,304H48v-48h248V304z M320,464h-8V256h8V464z M464,432H336v-48h128V432z M464,368H336v-48h128V368z M464,304H336v-48 h128V304z M488,464h-8V256h8V464z M488,240H24v-16h464V240z"></path> <path class="st0" d="M376,288h48c4.4,0,8-3.6,8-8s-3.6-8-8-8h-48c-4.4,0-8,3.6-8,8S371.6,288,376,288z"></path> <path class="st0" d="M424,336h-48c-4.4,0-8,3.6-8,8s3.6,8,8,8h48c4.4,0,8-3.6,8-8S428.4,336,424,336z"></path> <path class="st0" d="M424,400h-48c-4.4,0-8,3.6-8,8s3.6,8,8,8h48c4.4,0,8-3.6,8-8S428.4,400,424,400z"></path> <path class="st0" d="M192,272h-48c-4.4,0-8,3.6-8,8s3.6,8,8,8h48c4.4,0,8-3.6,8-8S196.4,272,192,272z"></path> </g> </svg> 