<?xml version="1.0" encoding="UTF-8"?> <!-- Generator: Adobe Illustrator 25.2.3, SVG Export Plug-In . SVG Version: 6.00 Build 0) --> <svg xmlns="http://www.w3.org/2000/svg" xmlns:xlink="http://www.w3.org/1999/xlink" version="1.1" id="Capa_1" x="0px" y="0px" viewBox="0 0 512 512" style="enable-background:new 0 0 512 512;" xml:space="preserve"> <style type="text/css"> .st0{fill:#FE9003;} </style> <g> <path class="st0" d="M239.4,188.9c4.1,0,7.5-3.4,7.5-7.5v-8.3c0-4.1-3.4-7.5-7.5-7.5s-7.5,3.4-7.5,7.5v8.3 C231.9,185.6,235.3,188.9,239.4,188.9z"></path> <path class="st0" d="M305.7,188.9c4.1,0,7.5-3.4,7.5-7.5v-8.3c0-4.1-3.4-7.5-7.5-7.5s-7.5,3.4-7.5,7.5v8.3 C298.2,185.6,301.6,188.9,305.7,188.9z"></path> <path class="st0" d="M284.2,57.2c0-4.1-3.4-7.5-7.5-7.5h-8.3c-4.1,0-7.5,3.4-7.5,7.5s3.4,7.5,7.5,7.5h8.3 C280.9,64.7,284.2,61.3,284.2,57.2z"></path> <path class="st0" d="M272.6,230.4c8.6,0,16.5-4.6,20.8-12c2.1-3.6,0.9-8.2-2.7-10.2c-3.6-2.1-8.2-0.9-10.2,2.7 c-1.6,2.8-4.6,4.5-7.9,4.5c-3.2,0-6.2-1.7-7.9-4.5c-2.1-3.6-6.7-4.8-10.3-2.7c-3.6,2.1-4.8,6.7-2.7,10.2 C256,225.8,264,230.4,272.6,230.4z"></path> <path class="st0" d="M512,372c0-32.2-20.8-59.7-49.7-69.7v-22.2h1.1c8.5,0,15.5-7,15.5-15.5v-17.1c0-8.5-7-15.5-15.5-15.5h-50.3 c-8.5,0-15.5,7-15.5,15.5v17.1c0,8.5,7,15.5,15.5,15.5h1.1v22.2c-9.3,3.2-17.7,8.2-24.9,14.6c-5.7-1.4-11.5-2.1-17.3-2.1h-16.5 c0,0,0,0,0,0s0,0,0,0h-25.6v-38.6c18.4-15.1,30.7-37.3,32.8-62.4h9.4c13.3,0,24.1-10.8,24.1-24.1v-33.1c0-3.8-0.9-7.5-2.6-10.8 c4.3-5.4,6-12.4,4.7-19.2c-1.3-7.1-5.7-13.2-12-16.7c-4.4-2.4-9.4-5-15-7.5V57.2c0-15.3-5.9-29.6-16.8-40.4 C343.6,5.9,329.3,0,314,0h-82.8C199.6,0,174,25.7,174,57.2v45.2c-5.6,2.5-10.6,5-15,7.5c-6.3,3.5-10.7,9.6-12,16.7 c-1.3,6.8,0.5,13.8,4.7,19.2c-1.7,3.3-2.6,7-2.6,10.8v33.1c0,13.3,10.8,24.1,24.1,24.1h9.4c2.1,25.1,14.4,47.3,32.8,62.4v38.6 h-25.6c0,0,0,0,0,0s0,0,0,0h-16.6c-4.7,0-9.4,0.5-13.9,1.3l7.1-8.7c5.2-6.3,4.7-15.4-1.1-21.2L153,274c-6.2-6.2-16.2-6.2-22.3,0 l-52.2,52.2c-15.7,15.7-16.3,41.3-1.3,57.1c6,6.4,13.7,10.5,22.2,12v92.6c0,13.3,10.8,24.1,24.1,24.1h39.6c4.1,0,7.5-3.4,7.5-7.5 s-3.4-7.5-7.5-7.5h-39.6c-5,0-9.1-4.1-9.1-9.1v-92.6c7.9-1.5,15.2-5.3,21.1-11.2c11.3-11.3,14.9-28.3,9.2-43.2 c-0.4-1.1-0.6-2.3-0.5-3.5c8.8-5,18.8-7.7,29-7.7h9.4c2.5,30.9,20.6,58.3,48.5,72.7c2.3,1.2,4.8,1.8,7.3,1.8c3.5,0,7-1.2,9.8-3.4 l0.4-0.3V497h-55.4c-4.1,0-7.5,3.4-7.5,7.5s3.4,7.5,7.5,7.5h228.6c13.3,0,24.1-10.8,24.1-24.1v-42.6C482.9,441.6,512,410.1,512,372 L512,372z M124.9,373.5c-4.9,4.9-11.5,7.6-18.5,7.5c-7-0.1-13.5-2.9-18.3-8c-9.4-10-9-26.2,1-36.2l52.2-52.2 c0.2-0.2,0.4-0.2,0.6-0.2c0.2,0,0.4,0.1,0.6,0.2l12.3,12.3c0.3,0.3,0.3,0.7,0.1,1l-20,24.5c-2,2.4-3.4,5.1-4.3,7.9 c0,0.1-0.1,0.1-0.1,0.2c-1.6,5.1-1.6,10.7,0.4,15.8C134.3,355.7,132,366.4,124.9,373.5z M412.6,264.6v-17.1c0-0.3,0.2-0.5,0.5-0.5 h50.3c0.3,0,0.5,0.2,0.5,0.5v17.1c0,0.3-0.2,0.5-0.5,0.5h-8.6h-33.1h-8.6C412.8,265.1,412.6,264.8,412.6,264.6L412.6,264.6z M429.2,280.1h18.1v18.7c-3-0.4-6-0.6-9.1-0.6s-6.1,0.2-9.1,0.6L429.2,280.1L429.2,280.1z M290.5,376.6 c20.5-6.8,35.9-24.8,38.8-46.8h18.3c-2.5,25.2-17.5,47.6-40.3,59.4c-0.3,0.2-0.6,0.1-0.9-0.1L290.5,376.6z M381,189.7 c0,5-4.1,9.1-9.1,9.1h-9.1V152c0,0,0,0,0.1,0c5.6,3.1,11.9,3.7,17.8,2.2c0.2,0.8,0.3,1.5,0.3,2.3L381,189.7L381,189.7z M314,15 c11.3,0,21.9,4.4,29.8,12.4s12.4,18.6,12.4,29.8v39.2c-7.9-2.8-16.7-5.4-26.4-7.6V57.2c0-16.7-7.2-31.7-18.6-42.2L314,15z M230.4,86.1V57.2c0-23.3,18.9-42.2,42.2-42.2c23.3,0,42.2,18.9,42.2,42.2v28.9c-12.8-2-26.8-3.2-42.2-3.2S243.1,84,230.4,86.1z M189,57.2c0-23.3,18.9-42.2,42.2-42.2h2.8c-11.4,10.5-18.6,25.5-18.6,42.2l0,31.7c-9.7,2.2-18.5,4.7-26.4,7.6L189,57.2z M161.7,129.3c0.5-2.7,2.2-5,4.6-6.3c20.6-11.5,55.9-25.1,106.3-25.1c50.5,0,85.7,13.7,106.3,25.1c2.4,1.3,4.1,3.6,4.6,6.3 c0.5,2.7-0.2,5.4-2,7.5l-0.1,0.1c-2.7,3.3-7.4,4.1-11.1,2c-15.5-8.6-48.7-23-97.7-23c-48.9,0-82.2,14.4-97.7,23 c-3.7,2.1-8.4,1.2-11.1-2l-0.1-0.1C161.9,134.7,161.2,132,161.7,129.3z M164.1,189.7v-33.1c0-0.8,0.1-1.6,0.3-2.3 c2,0.5,4.1,0.8,6.1,0.8c4,0,8-1,11.6-3c0,0,0,0,0.1,0l0,46.8h-9.1C168.2,198.8,164.1,194.7,164.1,189.7L164.1,189.7z M197.2,206.3 l0-61.4C214,138,239.3,131,272.6,131c33.3,0,58.6,7,75.3,13.9v61.4c0,41.5-33.8,75.3-75.3,75.3C231,281.6,197.2,247.8,197.2,206.3z M272.6,296.6c15.2,0,29.6-3.8,42.2-10.5V322c0,0.1,0,0.2,0,0.3c0,0.1,0,0.1,0,0.2c-0.1,23.2-19,42-42.2,42 c-23.2,0-42.2-18.9-42.2-42.1c0,0,0,0,0-0.1c0,0,0-0.1,0-0.1v-36C243,292.8,257.3,296.6,272.6,296.6z M238.8,389.1 c-0.2,0.2-0.6,0.2-0.9,0.1c-22.9-11.9-37.8-34.2-40.3-59.4h18.3c2.9,22,18.3,40,38.8,46.8L238.8,389.1z M263.5,388.7l9.1-7.2 l9.1,7.2V497h-18.1V388.7z M438.2,430.7c-13,0-25.3-4.1-35.5-12c-3.3-2.5-8-1.9-10.5,1.4c-2.5,3.3-1.9,8,1.4,10.5 c10.9,8.3,23.6,13.3,37.1,14.6v42.6c0,5-4.1,9.1-9.1,9.1h-125v-96.4l0.4,0.3c2.8,2.2,6.3,3.4,9.8,3.4c2.5,0,5-0.6,7.3-1.8 c27.9-14.5,45.9-41.9,48.5-72.7h9.4c1.9,0,3.8,0.1,5.6,0.3c-8.3,11.9-13.1,26.4-13.1,41.9c0,11.6,2.6,22.7,7.8,33.1 c1.9,3.7,6.4,5.2,10.1,3.3c3.7-1.9,5.2-6.4,3.3-10.1c-4.1-8.2-6.2-17.1-6.2-26.3c0-32.4,26.4-58.8,58.8-58.8S497,339.6,497,372 S470.6,430.7,438.2,430.7L438.2,430.7z"></path> <path class="st0" d="M463.1,364.5h-17.4v-25.6c0-4.1-3.4-7.5-7.5-7.5s-7.5,3.4-7.5,7.5V372c0,4.1,3.4,7.5,7.5,7.5h24.9 c4.1,0,7.5-3.4,7.5-7.5C470.6,367.8,467.2,364.5,463.1,364.5z"></path> <path class="st0" d="M48.1,355.4c0-4.1-3.4-7.5-7.5-7.5H7.5c-4.1,0-7.5,3.4-7.5,7.5s3.4,7.5,7.5,7.5h33.1 C44.8,362.9,48.1,359.5,48.1,355.4z"></path> <path class="st0" d="M67.8,415.2l-28.7,16.6c-3.6,2.1-4.8,6.7-2.7,10.2c1.4,2.4,3.9,3.8,6.5,3.8c1.3,0,2.6-0.3,3.7-1l28.7-16.6 c3.6-2.1,4.8-6.7,2.7-10.2C76,414.3,71.4,413.1,67.8,415.2z"></path> <path class="st0" d="M39.1,279.1l28.7,16.6c1.2,0.7,2.5,1,3.7,1c2.6,0,5.1-1.3,6.5-3.8c2.1-3.6,0.8-8.2-2.7-10.2l-28.7-16.6 c-3.6-2.1-8.2-0.8-10.2,2.7S35.5,277,39.1,279.1L39.1,279.1z"></path> </g> </svg> 